Coordinates
version=1
nRows=24
nColumns=22
inDegrees=yes

Units are S.I. units (second, meters, Newtons, ...)
If the header above contains a line with 'inDegrees', this indicates whether rotational values are in degrees (yes) or radians (no).

endheader
time	pelvis_tilt	pelvis_list	pelvis_rotation	pelvis_tx	pelvis_ty	pelvis_tz	hip_flexion_r	hip_adduction_r	hip_rotation_r	knee_angle_r	ankle_angle_r	subtalar_angle_r	hip_flexion_l	hip_adduction_l	hip_rotation_l	knee_angle_l	ankle_angle_l	subtalar_angle_l	lumbar_extension	lumbar_bending	lumbar_rotation
      4.24000000	      5.14026952	     -6.46467932	   -388.86548415	      0.86900871	      0.90303755	     -0.50393573	     17.88773274	      3.27085057	    -29.35761138	    -13.00480793	      1.30155822	      0.54088469	    -19.19410008	     -9.04890545	    -16.70740827	    -25.69912488	     28.71068883	     -2.96705658	    -15.11789243	      5.94408006	    -21.77853026
      4.25000000	      4.81458231	     -6.98067460	   -389.15737014	      0.87784748	      0.90292268	     -0.49508065	     17.64295018	      4.03583992	    -29.32706781	    -13.77118651	      0.33323726	     -0.93518261	    -19.26275322	     -9.88121452	    -16.11319401	    -27.11422624	     27.72215832	     -3.87355633	    -14.81202539	      6.46602181	    -21.67432822
      4.26000000	      4.50015527	     -7.46261342	   -389.58137001	      0.88649110	      0.90311049	     -0.48581191	     17.40104770	      4.83579042	    -29.03352745	    -14.54436760	     -0.48206363	     -2.43798203	    -19.20987521	    -10.66933162	    -15.52024887	    -28.75041602	     26.43383665	     -4.85379645	    -14.50492369	      6.89391016	    -21.48109717
      4.27000000	      4.23224191	     -7.86083145	   -390.11686231	      0.89495043	      0.90362484	     -0.47628488	     17.16151867	      5.58298182	    -28.50711800	    -15.35175847	     -1.05666556	     -3.98131977	    -19.03361159	    -11.31280124	    -14.75393437	    -30.55856001	     24.77348925	     -5.90699522	    -14.21112818	      7.17238307	    -21.19407148
      4.28000000	      3.99486714	     -8.20942783	   -390.72505272	      0.90322132	      0.90438976	     -0.46663343	     16.91397975	      6.30010897	    -27.81498260	    -16.18489460	     -1.30915524	     -5.40243396	    -18.68781962	    -11.87993294	    -13.83812138	    -32.60062550	     22.81543103	     -6.94959869	    -13.93934818	      7.36263132	    -20.85331090
      4.29000000	      3.80210103	     -8.49773263	   -391.36066932	      0.91127790	      0.90534889	     -0.45705038	     16.65554106	      6.94823512	    -27.01270732	    -17.04517410	     -1.23934494	     -6.67555866	    -18.13904844	    -12.35581570	    -12.71773214	    -34.89049162	     20.59940186	     -7.92548315	    -13.70969340	      7.46529273	    -20.51905767
      4.30000000	      3.64705205	     -8.73553205	   -391.98397704	      0.91911347	      0.90642195	     -0.44768365	     16.38092748	      7.52816407	    -26.16043956	    -17.90486491	     -0.88515268	     -7.77647127	    -17.36167690	    -12.74976757	    -11.36053863	    -37.42693654	     18.20892557	     -8.76795442	    -13.52829232	      7.50948516	    -20.22273242
      4.31000000	      3.51677334	     -8.90881444	   -392.57481114	      0.92669452	      0.90750501	     -0.43864494	     16.10932820	      8.03146770	    -25.26820697	    -18.74085523	     -0.32611913	     -8.57502673	    -16.32372019	    -13.03839620	     -9.74981391	    -40.19531562	     15.73773398	     -9.37549706	    -13.38261883	      7.49885306	    -19.99271635
      4.32000000	      3.40313185	     -9.08374330	   -393.11324807	      0.93408208	      0.90857401	     -0.42995788	     15.79342626	      8.50716058	    -24.48848570	    -19.52075933	      0.39194518	     -9.25361456	    -15.08285505	    -13.27206746	     -7.93477797	    -43.14366177	     13.26978943	     -9.81206283	    -13.30257570	      7.51032898	    -19.78924947
      4.33000000	      3.28336273	     -9.26633491	   -393.60220247	      0.94120835	      0.90953356	     -0.42162473	     15.42862642	      8.99762086	    -23.74302404	    -20.17497990	      1.22193325	     -9.95483966	    -13.62714368	    -13.47317961	     -6.01145632	    -46.26011169	     10.93796225	    -10.02317267	    -13.27719859	      7.56209235	    -19.67736437
      4.34000000	      3.16976467	     -9.42753982	   -394.04373709	      0.94811260	      0.91039667	     -0.41366974	     15.03261685	      9.44616626	    -23.11306447	    -20.73660971	      2.04617504	    -10.31112711	    -11.99840102	    -13.55610635	     -3.95308539	    -49.42894407	      8.73265775	    -10.06351279	    -13.29474483	      7.61946771	    -19.61295562
      4.35000000	      3.01397324	     -9.62212528	   -394.46867809	      0.95478613	      0.91111512	     -0.40597162	     14.58683152	      9.95098855	    -22.58359033	    -21.14295736	      2.86388209	    -10.65524237	    -10.23026547	    -13.62508335	     -1.92355494	    -52.60043345	      6.75698040	     -9.94269578	    -13.33940560	      7.75519148	    -19.55105028
      4.36000000	      2.83097217	     -9.85553202	   -394.88982853	      0.96123709	      0.91174922	     -0.39847174	     14.06508682	     10.51185355	    -22.13861103	    -21.38464330	      3.63391894	    -10.95242677	     -8.38361196	    -13.68628557	      0.01081838	    -55.68572688	      5.09928882	     -9.75913634	    -13.42324287	      7.95824388	    -19.48198839
      4.37000000	      2.61904943	    -10.13214296	   -395.32628506	      0.96746911	      0.91234195	     -0.39108809	     13.45810549	     11.14100893	    -21.74595651	    -21.45444349	      4.33603046	    -11.20898881	     -6.49921117	    -13.76995063	      1.78375127	    -58.61169075	      3.86022020	     -9.61790890	    -13.54072392	      8.22330551	    -19.38316766
      4.38000000	      2.38059898	    -10.44134640	   -395.80156076	      0.97348170	      0.91293731	     -0.38373867	     12.76933886	     11.83312855	    -21.35941566	    -21.36430384	      4.96088639	    -11.43447180	     -4.60605220	    -13.89065470	      3.35248236	    -61.31670071	      3.10240068	     -9.60473392	    -13.67892699	      8.52756503	    -19.23371005
      4.39000000	      2.12026713	    -10.76620097	   -396.33384622	      0.97927135	      0.91358033	     -0.37636510	     12.00893884	     12.57276551	    -20.93517874	    -21.13332759	      5.49362679	    -11.62211286	     -2.72275209	    -14.05078132	      4.70185279	    -63.75714753	      2.81342833	     -9.79168040	    -13.82489031	      8.84440613	    -19.02500113
      4.40000000	      1.84736157	    -11.07205801	   -396.94393053	      0.98484040	      0.91429484	     -0.36893699	     11.20418246	     13.31894389	    -20.43767452	    -20.80411714	      5.97308706	    -11.80618416	     -0.85679936	    -14.21896582	      5.83037619	    -65.90773256	      2.89094845	    -10.30512027	    -13.95880471	      9.13047274	    -18.74366978
      4.41000000	      1.58537839	    -11.37867797	   -397.65207139	      0.99019014	      0.91517603	     -0.36142698	     10.30920612	     14.08005765	    -19.80386944	    -20.36121082	      6.31224808	    -11.90175983	      0.92177111	    -14.39765278	      6.73701511	    -67.74331041	      3.23881046	    -11.06944169	    -14.11583548	      9.38507780	    -18.37797007
      4.42000000	      1.32815376	    -11.62823792	   -398.46962260	      0.99531126	      0.91617090	     -0.35387133	      9.39154689	     14.79394534	    -19.02983571	    -19.86385373	      6.57626607	    -11.92994777	      2.65182381	    -14.52835963	      7.44359171	    -69.27987731	      3.64250921	    -11.94394304	    -14.24937821	      9.56217837	    -17.93194154
      4.43000000	      1.10824217	    -11.83418771	   -399.41203258	      1.00019631	      0.91733869	     -0.34627185	      8.40840409	     15.44796764	    -18.08925324	    -19.31030033	      6.76261174	    -11.92556640	      4.26710810	    -14.59856400	      7.94114477	    -70.50908123	      4.08741448	    -12.92316413	    -14.40093941	      9.64941483	    -17.39200241
      4.44000000	      0.92020111	    -11.98512200	   -400.47735408	      1.00482919	      0.91863988	     -0.33865982	      7.38305751	     16.02342862	    -17.00143882	    -18.72079269	      6.89527602	    -11.90187929	      5.78113958	    -14.60305478	      8.24780543	    -71.44606139	      4.55190229	    -13.91531518	    -14.55735913	      9.64219053	    -16.76857360
      4.45000000	      0.76179937	    -12.08564974	   -401.66076921	      1.00919980	      0.92004007	     -0.33105320	      6.32291612	     16.51713351	    -15.77832998	    -18.10520530	      6.98219370	    -11.87706485	      7.19500675	    -14.55182361	      8.38132105	    -72.10040562	      5.07179512	    -14.87281947	    -14.71960963	      9.54706020	    -16.07131426
      4.46000000	      0.62922314	    -12.14407483	   -402.95132086	      1.01330741	      0.92150542	     -0.32347903	      5.23630317	     16.92986977	    -14.43476146	    -17.47486301	      7.03455818	    -11.86161074	      8.51177364	    -14.45610541	      8.36609885	    -72.48112090	      5.69244145	    -15.76494123	    -14.88913528	      9.37740811	    -15.31356264
      4.47000000	      0.51358115	    -12.16700173	   -404.33262960	      1.01717661	      0.92298797	     -0.31595997	      4.13799647	     17.26368524	    -13.01025551	    -16.83996150	      7.07679310	    -11.85642531	      9.74121727	    -14.32849381	      8.22778130	    -72.59406553	      6.45183926	    -16.56891664	    -15.06135106	      9.15012664	    -14.50341115
